<?xml version="1.0" encoding="iso-8859-1"?>
<!-- Generator: Adobe Illustrator 21.0.0, SVG Export Plug-In . SVG Version: 6.00 Build 0)  -->
<svg xmlns="http://www.w3.org/2000/svg" xmlns:xlink="http://www.w3.org/1999/xlink" version="1.1" id="Capa_1" x="0px" y="0px" viewBox="0 0 512 512" style="enable-background:new 0 0 512 512;" xml:space="preserve" width="512" height="512">
<g>
	<path d="M507.605,145.753l-21.207-21.207c-5.859-5.859-15.355-5.859-21.215,0l-31.822,31.822l42.422,42.422l31.822-31.822   C513.465,161.108,513.465,151.612,507.605,145.753z"/>
	<path d="M341.298,248.28l-16.564,49.693c-0.881,2.64-0.194,5.552,1.774,7.518c1.967,1.968,4.878,2.655,7.518,1.774l49.693-16.564   L454.573,220l-42.422-42.422L341.298,248.28z"/>
	<path d="M30,467V61H15C6.709,61,0,67.709,0,76v421c0,8.291,6.709,15,15,15h301c8.291,0,15-6.709,15-15v-15H45   C36.709,482,30,475.291,30,467z"/>
	<path d="M196,91c-8.276,0-15,6.724-15,15s6.724,15,15,15s15-6.724,15-15S204.276,91,196,91z"/>
	<path d="M196,181c-24.814,0-45,20.186-45,45v15h90v-15C241,201.186,220.814,181,196,181z"/>
	<path d="M305.365,326.796c-10.137-10.225-13.564-24.829-9.111-38.262l18.823-56.455L391,156.156V121H286c-8.291,0-15-6.709-15-15V0   H75c-8.291,0-15,6.709-15,15v422c0,8.291,6.709,15,15,15h301c8.291,0,15-6.709,15-15V319.896l-52.104,17.373   C325.824,337.962,315.901,337.224,305.365,326.796z M256,391H136c-8.291,0-15-6.709-15-15s6.709-15,15-15h120   c8.291,0,15,6.709,15,15S264.291,391,256,391z M256,331H136c-8.291,0-15-6.709-15-15s6.709-15,15-15h120c8.291,0,15,6.709,15,15   S264.291,331,256,331z M271,256c0,8.291-6.709,15-15,15H136c-8.291,0-15-6.709-15-15v-30c0-41.353,33.647-75,75-75   c-24.814,0-45-20.186-45-45s20.186-45,45-45s45,20.186,45,45s-20.186,45-45,45c41.353,0,75,33.647,75,75V256z"/>
	<polygon points="301,0 301,91 391,91  "/>
</g>















</svg>
